<svg width="68" height="65" viewBox="0 0 68 65" fill="none" xmlns="http://www.w3.org/2000/svg">
<path d="M4.85714 2.40741C4.85714 1.76892 5.11301 1.15659 5.56846 0.705113C6.0239 0.253637 6.64162 0 7.28571 0H60.7143C61.3584 0 61.9761 0.253637 62.4315 0.705113C62.887 1.15659 63.1429 1.76892 63.1429 2.40741C63.1429 3.04589 62.887 3.65822 62.4315 4.1097C61.9761 4.56118 61.3584 4.81482 60.7143 4.81482H53.4286C53.4286 6.15333 52.4474 7.22222 51.2186 7.22222H49.7857V14.6611C51.85 15.2148 53.38 17.1167 53.38 19.3315C53.38 21.007 52.5057 22.49 51.187 23.3519L53.4213 26.4815H64.3231C64.6491 26.4789 64.963 26.6038 65.1967 26.8291C65.4304 27.0545 65.565 27.3621 65.5714 27.6852C65.5714 27.8441 65.5397 28.0014 65.4781 28.1481C65.4165 28.2947 65.3261 28.4279 65.2123 28.5398C65.0986 28.6517 64.9635 28.7401 64.8151 28.8C64.6666 28.86 64.5077 28.8902 64.3474 28.8889H63.1429V36.1111H64.3231C64.6491 36.1085 64.963 36.2334 65.1967 36.4588C65.4304 36.6841 65.565 36.9917 65.5714 37.3148C65.565 37.6379 65.4304 37.9455 65.1967 38.1709C64.963 38.3962 64.6491 38.5211 64.3231 38.5185H61.8509C61.8845 38.7387 61.855 38.9638 61.7657 39.1682C61.6763 39.3725 61.5308 39.5478 61.3457 39.6741C61.1271 39.8185 60.8843 39.8907 60.6414 39.8907C60.2529 39.8907 59.8886 39.7222 59.6457 39.3852L59.0264 38.5185H38.0193L37.4 39.3852C37.1571 39.7222 36.7929 39.8907 36.4043 39.8907C36.1614 39.8907 35.9186 39.8185 35.7 39.6741C35.5149 39.5478 35.3694 39.3725 35.2801 39.1682C35.1907 38.9638 35.1612 38.7387 35.1949 38.5185H32.8197C32.4937 38.5211 32.1798 38.3962 31.9461 38.1709C31.7125 37.9455 31.5778 37.6379 31.5714 37.3148C31.5714 36.6552 32.1349 36.1111 32.8197 36.1111H34V28.8889H32.8197C32.4937 28.8915 32.1798 28.7666 31.9461 28.5412C31.7125 28.3159 31.5778 28.0083 31.5714 27.6852C31.5714 27.0256 32.1349 26.4815 32.8197 26.4815H43.6269L45.8611 23.3519C45.1881 22.9142 44.6351 22.3178 44.252 21.6161C43.8688 20.9144 43.6673 20.1294 43.6657 19.3315C43.6657 18.6574 44.2243 18.1278 44.88 18.1278C45.56 18.1278 46.0943 18.6574 46.0943 19.3315C46.0943 20.1981 46.563 20.9637 47.2624 21.3874L47.4689 21.0985C47.5219 21.0103 47.5864 20.9294 47.6607 20.8578C47.7731 20.7445 47.9074 20.6548 48.0555 20.594C48.2036 20.5332 48.3626 20.5025 48.5229 20.5039C48.8386 20.5015 49.1543 20.6243 49.385 20.8578C49.4601 20.9293 49.5254 21.0102 49.5793 21.0985L49.7833 21.3874C50.4827 20.9637 50.9514 20.1981 50.9514 19.3315C50.9514 18.0074 49.9071 16.9481 48.5714 16.9241C48.1586 16.9241 47.77 16.7074 47.5514 16.3704C47.4078 16.1838 47.3309 15.9551 47.3329 15.7204C47.3329 15.6241 47.3329 15.5519 47.3571 15.4556V7.22222H45.9243C44.6954 7.22222 43.7143 6.15333 43.7143 4.81482H29.1429V55.3704H30.9643C32.64 55.3704 34 56.7185 34 58.3796V60.1852H63.1671C65.8386 60.1852 68 62.3398 68 65H0C0 62.3398 2.16143 60.1852 4.83286 60.1852H7.28571V58.3796C7.28571 56.7185 8.64571 55.3704 10.3214 55.3704H12.1429V4.81482H7.28571C6.64162 4.81482 6.0239 4.56118 5.56846 4.1097C5.11301 3.65822 4.85714 3.04589 4.85714 2.40741ZM14.5714 9.62963V14.9043L25.2134 9.62963H14.5714ZM16.0723 55.3704H26.7143V50.0957L16.0723 55.3704ZM25.2134 48.1482H14.5714V53.4228L25.2134 48.1482ZM16.0723 16.8519H26.7143V11.5772L16.0723 16.8519ZM25.2134 19.2593H14.5714V24.5339L25.2134 19.2593ZM16.0723 26.4815H26.7143V21.2069L16.0723 26.4815ZM25.2134 28.8889H14.5714V34.1635L25.2134 28.8889ZM16.0723 36.1111H26.7143V30.8365L16.0723 36.1111ZM25.2134 38.5185H14.5714V43.7932L25.2134 38.5185ZM16.0723 45.7407H26.7143V40.4661L16.0723 45.7407ZM48.2849 24.1415L46.614 26.4815H50.4317L48.7609 24.1415C48.6023 24.1492 48.4434 24.1492 48.2849 24.1415ZM41.9074 28.8889H36.4286V36.1111H36.7491L41.9074 28.8889ZM39.7387 36.1111H57.307L52.1511 28.8889H44.8946L39.7387 36.1111ZM55.1407 28.8889L60.2966 36.1111H60.7143V28.8889H55.1407Z" fill="#FF1400"/>
</svg>
