<svg width="50" height="50" viewBox="0 0 50 50" fill="none" xmlns="http://www.w3.org/2000/svg">
<path fill-rule="evenodd" clip-rule="evenodd" d="M34.0165 15.4753C34.3683 15.3844 34.7417 15.435 35.0567 15.6162C35.3716 15.7975 35.603 16.0949 35.7012 16.4448C36.1624 18.0958 36.2354 19.8312 35.9143 21.5151C35.5933 23.1991 34.8869 24.7859 33.8506 26.1514C32.8142 27.517 31.476 28.6242 29.9405 29.3864C28.4051 30.1487 26.714 30.5454 24.9998 30.5454C23.2855 30.5454 21.5945 30.1487 20.059 29.3864C18.5236 28.6242 17.1853 27.517 16.149 26.1514C15.1126 24.7859 14.4063 23.1991 14.0853 21.5151C13.7642 19.8312 13.8372 18.0958 14.2984 16.4448C14.3966 16.0949 14.628 15.7975 14.9429 15.6162C15.2579 15.435 15.6313 15.3844 15.9831 15.4753C21.1526 16.8087 28.847 16.8087 34.0165 15.4753ZM16.722 18.492C16.5892 19.6583 16.7044 20.8396 17.0599 21.9583C17.4154 23.0771 18.0033 24.1081 18.785 24.9838C19.5667 25.8596 20.5246 26.5603 21.596 27.0401C22.6673 27.5198 23.828 27.7678 25.0019 27.7678C26.1757 27.7678 27.3364 27.5198 28.4077 27.0401C29.4791 26.5603 30.437 25.8596 31.2187 24.9838C32.0004 24.1081 32.5883 23.0771 32.9438 21.9583C33.2994 20.8396 33.4145 19.6583 33.2817 18.492C28.2581 19.5059 21.7442 19.5059 16.722 18.492Z" fill="#0019FF"/>
<path fill-rule="evenodd" clip-rule="evenodd" d="M18.0556 31.2361C9.74028 32.6875 0 36.3931 0 41.6667V50H50V41.6667C50 36.3931 40.2597 32.6875 31.9444 31.2361V37.5H18.0556V31.2361ZM9.72222 50V37.5H12.5V50H9.72222ZM38.8889 37.5V50H41.6667V37.5H38.8889ZM26.3889 0.0805557V6.22222C26.3889 6.59058 26.2426 6.94385 25.9821 7.20432C25.7216 7.46478 25.3684 7.61111 25 7.61111C24.6316 7.61111 24.2784 7.46478 24.0179 7.20432C23.7574 6.94385 23.6111 6.59058 23.6111 6.22222V0C22.1772 0.0757881 20.7674 0.400052 19.4444 0.958333V9C19.4444 9.36835 19.2981 9.72163 19.0376 9.98209C18.7772 10.2426 18.4239 10.3889 18.0556 10.3889C17.6872 10.3889 17.3339 10.2426 17.0735 9.98209C16.813 9.72163 16.6667 9.36835 16.6667 9V2.6875C14.7639 4.32361 13.6667 6.44583 13.3181 8.30555C13.3061 8.37022 13.295 8.43505 13.2847 8.5L13.2569 8.52778C13.1333 9.40139 13.2014 10.1208 13.3792 10.6153C13.493 10.9593 13.4679 11.3343 13.3092 11.66C13.1504 11.9858 12.8706 12.2367 12.5295 12.359C12.1884 12.4814 11.8129 12.4655 11.4833 12.3149C11.1537 12.1643 10.896 11.8908 10.7653 11.5528C10.7417 11.4884 10.7195 11.4236 10.6986 11.3583C2.63333 21.8889 47.4111 21.8833 39.2875 11.3403C39.2665 11.4083 39.2443 11.4759 39.2208 11.5431C39.0928 11.8823 38.8372 12.158 38.5086 12.3112C38.18 12.4645 37.8045 12.4832 37.4623 12.3633C37.1201 12.2435 36.8383 11.9945 36.6772 11.6697C36.5161 11.3449 36.4884 10.97 36.6 10.625C36.8 10.05 36.8583 9.33333 36.75 8.54167C36.7417 8.53556 36.7334 8.52954 36.725 8.52361C36.425 6.64583 35.2833 4.56944 33.3333 2.93333V9C33.3333 9.36835 33.187 9.72163 32.9265 9.98209C32.6661 10.2426 32.3128 10.3889 31.9444 10.3889C31.5761 10.3889 31.2228 10.2426 30.9623 9.98209C30.7019 9.72163 30.5556 9.36835 30.5556 9V1.19722C30.0132 0.953616 29.455 0.747122 28.8847 0.579166C28.0686 0.341334 27.2336 0.175442 26.3889 0.0805557Z" fill="#0019FF"/>
</svg>
