<svg width="28" height="34" viewBox="0 0 28 34" fill="none" xmlns="http://www.w3.org/2000/svg">
<path d="M14.4006 0C8.8412 0 4.28516 4.54244 4.28516 10.0865C4.28516 12.2347 4.97128 14.2312 6.13239 15.872L13.166 28.0316C14.151 29.3185 14.8059 29.074 15.6249 27.9636L23.3831 14.7612C23.5395 14.4777 23.6626 14.1757 23.7697 13.8674C24.262 12.6677 24.5152 11.3833 24.515 10.0865C24.5153 4.54244 19.9607 0 14.4006 0ZM14.4006 4.72604C17.3947 4.72604 19.7754 7.1013 19.7754 10.0865C19.7754 13.0718 17.3947 15.446 14.4006 15.446C11.4069 15.446 9.02514 13.0721 9.02514 10.0865C9.02514 7.1013 11.4069 4.72638 14.4006 4.72638" fill="white"/>
<path d="M20.8304 16.6289L20.8141 16.6717C20.8192 16.6588 20.8233 16.6456 20.8284 16.6326L20.8304 16.6289ZM8.96192 23.4796C4.15904 24.1583 0.799805 25.7818 0.799805 28.1717C0.799805 31.3908 6.41258 34.0003 14.3999 34.0003C22.3873 34.0003 28 31.3908 28 28.1717C28 25.7818 24.6412 24.1583 19.8386 23.4796L19.1732 24.6125C22.7929 25.1147 25.28 26.1701 25.28 27.3948C25.28 29.1118 20.4088 30.5034 14.3999 30.5034C8.39105 30.5034 3.51983 29.1118 3.51983 27.3948C3.51949 26.1742 5.99029 25.1198 9.62118 24.6156C9.40188 24.2368 9.18156 23.8587 8.96192 23.4796Z" fill="white"/>
</svg>
