<svg width="29" height="29" viewBox="0 0 29 29" fill="none" xmlns="http://www.w3.org/2000/svg">
<path d="M23.2372 28.9998C21.9734 28.9998 20.1981 28.5427 17.5396 27.0578C14.3069 25.2452 11.8064 23.5719 8.59118 20.3657C5.49117 17.2682 3.9826 15.2628 1.87126 11.4215C-0.513962 7.08442 -0.107361 4.811 0.347152 3.83936C0.888423 2.67805 1.68738 1.98346 2.72007 1.29406C3.30663 0.909826 3.92736 0.580453 4.57438 0.310117C4.63912 0.282282 4.69934 0.255742 4.75308 0.231791C5.07357 0.0874362 5.55915 -0.130714 6.17424 0.102325C6.58472 0.256389 6.95118 0.571639 7.52483 1.13805C8.70125 2.29807 10.3089 4.88156 10.9019 6.15032C11.3001 7.00544 11.5636 7.56991 11.5643 8.203C11.5643 8.94419 11.1914 9.51579 10.7388 10.1327C10.654 10.2486 10.5698 10.3593 10.4882 10.4667C9.99551 11.114 9.88738 11.3011 9.9586 11.6351C10.103 12.3064 11.1797 14.3047 12.9492 16.07C14.7187 17.8353 16.6597 18.8438 17.3337 18.9875C17.6821 19.062 17.8731 18.9493 18.5413 18.4392C18.6371 18.3661 18.7355 18.2903 18.8384 18.2146C19.5286 17.7013 20.0738 17.3381 20.7976 17.3381H20.8015C21.4315 17.3381 21.9708 17.6113 22.8643 18.0618C24.0297 18.6496 26.6914 20.2362 27.8588 21.4137C28.4266 21.9859 28.7432 22.351 28.8979 22.7608C29.131 23.3777 28.9115 23.8612 28.7684 24.1849C28.7445 24.2386 28.7179 24.2976 28.6901 24.3629C28.4176 25.0087 28.0862 25.628 27.7001 26.213C27.0119 27.2423 26.3146 28.0391 25.1505 28.5809C24.5527 28.8636 23.8985 29.0068 23.2372 28.9998Z" fill="white"/>
</svg>
