<svg width="63" height="54" viewBox="0 0 63 54" fill="none" xmlns="http://www.w3.org/2000/svg">
<path d="M50.3157 47.3197C48.6317 47.6262 47.1073 48.5104 46.0052 49.82L45.9952 49.832C45.5155 50.4639 44.8711 50.9515 44.1326 51.2415C43.3942 51.5315 42.5902 51.6127 41.8087 51.4762L41.8347 51.4802V51.4542L41.6747 51.4582L41.5066 51.4542H41.5147V51.4802C40.7389 51.6115 39.9421 51.5283 39.2102 51.2396C38.4783 50.9508 37.8393 50.4676 37.3621 49.842L37.3541 49.832C36.2627 48.5269 34.7517 47.6416 33.0796 47.3277L33.0336 47.3197C31.3554 46.963 29.6046 47.2301 28.1091 48.071C26.6136 48.9119 25.4758 50.269 24.9086 51.8883L24.8926 51.9383L27.2569 52.7284C27.6319 51.6628 28.3868 50.773 29.377 50.2293C30.3672 49.6857 31.5232 49.5264 32.6235 49.782L32.5935 49.776C33.7636 49.9919 34.8151 50.6261 35.5519 51.5602L35.5599 51.5702C36.207 52.3654 37.0307 52.9985 37.9654 53.4194C38.9002 53.8403 39.9203 54.0372 40.9446 53.9945H40.9326C41.1666 53.9945 41.4126 53.9825 41.6727 53.9665C41.9287 53.9825 42.1767 53.9945 42.4128 53.9945C43.4324 54.0356 44.4477 53.8391 45.3784 53.4204C46.3091 53.0018 47.1297 52.3725 47.7754 51.5822L47.7854 51.5702C48.5157 50.6386 49.5589 50.0032 50.7218 49.782L50.7518 49.778C51.8431 49.53 52.9875 49.6901 53.9689 50.2282C54.9502 50.7662 55.7007 51.6449 56.0785 52.6984L56.0885 52.7304L58.4528 51.9403C57.89 50.3022 56.7453 48.9278 55.2361 48.0779C53.727 47.228 51.9583 46.9617 50.2657 47.3297L50.3117 47.3217L50.3157 47.3197Z" fill="#0019FF"/>
<path d="M27.707 29.6509C27.2436 29.6427 26.8003 29.4604 26.4651 29.1404C26.1299 28.8203 25.9273 28.3859 25.8976 27.9234C25.8679 27.4609 26.0132 27.0042 26.3047 26.6438C26.5961 26.2835 27.0125 26.046 27.471 25.9785H27.481V25.9905L28.5891 26.1905C28.8794 26.3486 29.1217 26.5819 29.2906 26.8659C29.4596 27.1499 29.5489 27.4742 29.5492 27.8047V27.8067C29.5487 28.2954 29.3549 28.7639 29.0102 29.1102C28.6654 29.4565 28.1976 29.6523 27.709 29.6549L27.707 29.6509ZM29.9693 17.2534L35.41 15.3452H47.9375L53.3782 17.2534V21.818L41.6748 19.8977L29.9713 21.818L29.9693 17.2534ZM38.0043 8.48831H45.3452L46.5234 12.8509H36.8261L38.0043 8.48831ZM54.7644 26.1845L55.8725 25.9845V25.9745C56.3183 26.0303 56.7284 26.2464 57.0266 26.5825C57.3247 26.9185 57.4904 27.3515 57.4927 27.8007C57.4927 28.2904 57.2982 28.76 56.952 29.1062C56.6057 29.4524 56.1361 29.6469 55.6465 29.6469C55.1568 29.6469 54.6872 29.4524 54.341 29.1062C53.9948 28.76 53.8003 28.2904 53.8003 27.8007V27.7987C53.8003 27.1046 54.1843 26.5006 54.7504 26.1885L54.7604 26.1845H54.7644ZM31.5255 45.3129H31.5375C32.1836 45.3129 32.8156 45.3709 33.4297 45.4829L33.3657 45.4729C35.435 45.8477 37.3135 46.92 38.6884 48.5113L38.6984 48.5233C39.0064 48.9033 39.3785 49.2174 39.7985 49.4534L39.8185 49.4634V49.4274L41.6247 49.5874H41.7008L43.515 49.4054V49.4694C43.955 49.2234 44.3271 48.9093 44.6291 48.5393L44.6351 48.5333C45.9957 46.9483 47.8565 45.875 49.9098 45.4909L49.9658 45.4829C50.5179 45.3789 51.1539 45.3169 51.804 45.3149H51.816C52.4921 45.3149 53.1522 45.3869 53.7863 45.5269L53.7263 45.5149L62.0133 23.2441L55.8585 22.232V15.4912L49.1677 13.1429L47.2474 6H36.0901L34.1698 13.1429L27.479 15.4912V22.232L21.3242 23.2441L29.6113 45.5149C30.1853 45.3869 30.8454 45.3149 31.5215 45.3149H31.5335L31.5255 45.3129Z" fill="#0019FF"/>
<path d="M18.6715 20.6384C19.7569 20.6384 20.6369 19.7584 20.6369 18.6729C20.6369 17.5875 19.7569 16.7075 18.6715 16.7075C17.586 16.7075 16.7061 17.5875 16.7061 18.6729C16.7061 19.7584 17.586 20.6384 18.6715 20.6384Z" fill="#0019FF"/>
<path d="M4.91366 6.8803C5.99913 6.8803 6.87908 6.00035 6.87908 4.91488C6.87908 3.82941 5.99913 2.94946 4.91366 2.94946C3.82819 2.94946 2.94824 3.82941 2.94824 4.91488C2.94824 6.00035 3.82819 6.8803 4.91366 6.8803Z" fill="#0019FF"/>
<path d="M24.5676 28.4999C23.7901 28.4999 23.0301 28.2693 22.3837 27.8374C21.7373 27.4055 21.2335 26.7916 20.9359 26.0733C20.6384 25.355 20.5606 24.5647 20.7123 23.8022C20.8639 23.0396 21.2383 22.3392 21.788 21.7895C22.3378 21.2398 23.0382 20.8654 23.8007 20.7137C24.5632 20.562 25.3536 20.6399 26.0718 20.9374C26.7901 21.2349 27.404 21.7387 27.8359 22.3852C28.2679 23.0316 28.4984 23.7916 28.4984 24.569C28.4953 25.6106 28.0801 26.6086 27.3436 27.3451C26.6071 28.0816 25.6091 28.4967 24.5676 28.4999ZM24.5676 22.6036C24.1788 22.6036 23.7988 22.7189 23.4756 22.9348C23.1524 23.1508 22.9005 23.4578 22.7517 23.8169C22.603 24.176 22.5641 24.5712 22.6399 24.9525C22.7157 25.3337 22.9029 25.6839 23.1778 25.9588C23.4527 26.2337 23.8029 26.4208 24.1841 26.4967C24.5654 26.5725 24.9606 26.5336 25.3197 26.3848C25.6788 26.2361 25.9858 25.9842 26.2017 25.661C26.4177 25.3377 26.533 24.9577 26.533 24.569C26.5314 24.0482 26.3239 23.5492 25.9556 23.181C25.5873 22.8127 25.0883 22.6052 24.5676 22.6036Z" fill="#0019FF"/>
<path d="M27.5159 13.7592C27.5052 10.1137 26.0523 6.62046 23.4745 4.04265C20.8967 1.46484 17.4035 0.0119338 13.7579 0.00130413C11.4105 -0.0321799 9.09895 0.579699 7.0755 1.77018L8.15648 3.44079C8.92465 3.07158 9.71193 2.74354 10.515 2.45808C8.89046 5.66359 7.98496 9.18498 7.86167 12.7765H1.96542C2.07553 11.1539 2.5455 9.57617 3.34121 8.15779L1.86715 6.88027C0.644381 8.96653 -0.000129637 11.341 1.4044e-07 13.7592C-0.000258028 15.566 0.355425 17.3552 1.04673 19.0245C1.73804 20.6938 2.75143 22.2105 4.02903 23.4881C5.30662 24.7657 6.82338 25.7791 8.49269 26.4704C10.162 27.1617 11.9511 27.5174 13.7579 27.5172C15.5098 27.5337 17.2472 27.1995 18.868 26.5344L18.2784 24.6673C16.6672 25.3563 14.9173 25.6591 13.1683 25.5517C11.0726 22.3285 9.9157 18.5855 9.82709 14.7419H27.4176C27.4988 14.421 27.5319 14.0899 27.5159 13.7592ZM10.6133 25.1587C8.6591 24.5729 6.87333 23.5284 5.4049 22.1123C3.45506 20.1171 2.2421 17.5179 1.96542 14.7419H7.86167C7.99689 18.375 8.93668 21.9328 10.6133 25.1587ZM9.82709 12.7765C9.90525 8.94544 11.0264 5.20817 13.07 1.96672H14.4458C16.4894 5.20817 17.6106 8.94544 17.6888 12.7765H9.82709ZM19.6542 12.7765C19.5794 9.13473 18.6361 5.56345 16.9026 2.35981C19.2148 3.02626 21.2702 4.37898 22.7968 6.23902C24.3234 8.09906 25.2494 10.3788 25.4522 12.7765H19.6542Z" fill="#0019FF"/>
</svg>
